<svg width="20" height="20" viewBox="0 0 20 20" fill="none" xmlns="http://www.w3.org/2000/svg">
<path fill-rule="evenodd" clip-rule="evenodd" d="M9.99996 1.6665C5.39996 1.6665 1.66663 5.39984 1.66663 9.99984C1.66663 14.5998 5.39996 18.3332 9.99996 18.3332C14.6 18.3332 18.3333 14.5998 18.3333 9.99984C18.3333 5.39984 14.6 1.6665 9.99996 1.6665ZM9.99996 16.6665C6.32496 16.6665 3.33329 13.6748 3.33329 9.99984C3.33329 6.32484 6.32496 3.33317 9.99996 3.33317C13.675 3.33317 16.6666 6.32484 16.6666 9.99984C16.6666 13.6748 13.675 16.6665 9.99996 16.6665ZM8.33321 11.8082L13.2332 6.90817C13.5582 6.58317 14.0915 6.58317 14.4165 6.90817C14.7415 7.23317 14.7415 7.75817 14.4165 8.08317L8.92488 13.5748C8.59988 13.8998 8.07488 13.8998 7.74988 13.5748L5.59155 11.4165C5.26655 11.0915 5.26655 10.5665 5.59155 10.2415C5.74724 10.0855 5.95862 9.99777 6.17905 9.99777C6.39948 9.99777 6.61085 10.0855 6.76655 10.2415L8.33321 11.8082Z" fill="#0C71BC"/>
</svg>
