<svg width="18" height="18" viewBox="0 0 18 18" fill="none" xmlns="http://www.w3.org/2000/svg">
<path fill-rule="evenodd" clip-rule="evenodd" d="M8.99999 0.666504C4.39999 0.666504 0.666656 4.39984 0.666656 8.99984C0.666656 13.5998 4.39999 17.3332 8.99999 17.3332C13.6 17.3332 17.3333 13.5998 17.3333 8.99984C17.3333 4.39984 13.6 0.666504 8.99999 0.666504ZM8.99999 15.6665C5.32499 15.6665 2.33332 12.6748 2.33332 8.99984C2.33332 5.32484 5.32499 2.33317 8.99999 2.33317C12.675 2.33317 15.6667 5.32484 15.6667 8.99984C15.6667 12.6748 12.675 15.6665 8.99999 15.6665ZM7.33324 10.8082L12.2332 5.90817C12.5582 5.58317 13.0916 5.58317 13.4166 5.90817C13.7416 6.23317 13.7416 6.75817 13.4166 7.08317L7.92491 12.5748C7.59991 12.8998 7.07491 12.8998 6.74991 12.5748L4.59158 10.4165C4.26658 10.0915 4.26658 9.56651 4.59158 9.24151C4.74727 9.08546 4.95865 8.99777 5.17908 8.99777C5.39951 8.99777 5.61089 9.08546 5.76658 9.24151L7.33324 10.8082Z" fill="#424242"/>
</svg>
