<svg width="18" height="18" viewBox="0 0 18 18" fill="none" xmlns="http://www.w3.org/2000/svg">
<path fill-rule="evenodd" clip-rule="evenodd" d="M8.99996 0.666504C4.39996 0.666504 0.666626 4.39984 0.666626 8.99984C0.666626 13.5998 4.39996 17.3332 8.99996 17.3332C13.6 17.3332 17.3333 13.5998 17.3333 8.99984C17.3333 4.39984 13.6 0.666504 8.99996 0.666504ZM8.99996 15.6665C5.32496 15.6665 2.33329 12.6748 2.33329 8.99984C2.33329 5.32484 5.32496 2.33317 8.99996 2.33317C12.675 2.33317 15.6666 5.32484 15.6666 8.99984C15.6666 12.6748 12.675 15.6665 8.99996 15.6665ZM7.33321 10.8082L12.2332 5.90817C12.5582 5.58317 13.0915 5.58317 13.4165 5.90817C13.7415 6.23317 13.7415 6.75817 13.4165 7.08317L7.92488 12.5748C7.59988 12.8998 7.07488 12.8998 6.74988 12.5748L4.59155 10.4165C4.26655 10.0915 4.26655 9.56651 4.59155 9.24151C4.74724 9.08546 4.95862 8.99777 5.17905 8.99777C5.39948 8.99777 5.61085 9.08546 5.76655 9.24151L7.33321 10.8082Z" fill="#0C71BC"/>
</svg>
