<svg width="14" height="14" viewBox="0 0 14 14" fill="none" xmlns="http://www.w3.org/2000/svg">
<path d="M12.7423 0.7102C12.5601 0.522948 12.3128 0.417715 12.0549 0.417715C11.797 0.417715 11.5497 0.522948 11.3676 0.7102L6.59981 5.5902L1.83206 0.7002C1.6499 0.512948 1.40259 0.407715 1.14468 0.407715C0.886777 0.407715 0.639467 0.512948 0.457307 0.7002C0.0770566 1.0902 0.0770566 1.7202 0.457307 2.1102L5.22506 7.0002L0.457307 11.8902C0.0770566 12.2802 0.0770566 12.9102 0.457307 13.3002C0.837557 13.6902 1.45181 13.6902 1.83206 13.3002L6.59981 8.4102L11.3676 13.3002C11.7478 13.6902 12.3621 13.6902 12.7423 13.3002C13.1226 12.9102 13.1226 12.2802 12.7423 11.8902L7.97456 7.0002L12.7423 2.1102C13.1128 1.7302 13.1128 1.0902 12.7423 0.7102Z" fill="#424242"/>
</svg>
