<svg width="44" height="44" viewBox="0 0 44 44" fill="none" xmlns="http://www.w3.org/2000/svg">
<path opacity="0.4" d="M0 0H36C40.4183 0 44 3.58172 44 8V44H0V0Z" fill="black"/>
<path d="M18.7951 25.8749L15.3251 22.4049C15.1382 22.2176 14.8846 22.1124 14.6201 22.1124C14.3555 22.1124 14.1019 22.2176 13.9151 22.4049C13.5251 22.7949 13.5251 23.4249 13.9151 23.8149L18.0951 27.9949C18.4851 28.3849 19.1151 28.3849 19.5051 27.9949L30.0851 17.4149C30.4751 17.0249 30.4751 16.3949 30.0851 16.0049C29.8982 15.8176 29.6446 15.7124 29.3801 15.7124C29.1155 15.7124 28.8619 15.8176 28.6751 16.0049L18.7951 25.8749Z" fill="white"/>
</svg>
