<svg width="44" height="44" viewBox="0 0 44 44" fill="none" xmlns="http://www.w3.org/2000/svg">
<path opacity="0.4" d="M0 0H36C40.4183 0 44 3.58172 44 8V44H0V0Z" fill="black"/>
<path fill-rule="evenodd" clip-rule="evenodd" d="M25.5 11H14.5C13.4 11 12.5 11.9 12.5 13V26C12.5 26.55 12.95 27 13.5 27C14.05 27 14.5 26.55 14.5 26V14C14.5 13.45 14.95 13 15.5 13H25.5C26.05 13 26.5 12.55 26.5 12C26.5 11.45 26.05 11 25.5 11ZM29.5 15H18.5C17.4 15 16.5 15.9 16.5 17V31C16.5 32.1 17.4 33 18.5 33H29.5C30.6 33 31.5 32.1 31.5 31V17C31.5 15.9 30.6 15 29.5 15ZM19.5 31H28.5C29.05 31 29.5 30.55 29.5 30V18C29.5 17.45 29.05 17 28.5 17H19.5C18.95 17 18.5 17.45 18.5 18V30C18.5 30.55 18.95 31 19.5 31Z" fill="white"/>
</svg>
