<svg width="20" height="20" viewBox="0 0 20 20" fill="none" xmlns="http://www.w3.org/2000/svg">
<path fill-rule="evenodd" clip-rule="evenodd" d="M1.66675 9.99984C1.66675 5.39984 5.39175 1.6665 9.99175 1.6665C14.6001 1.6665 18.3334 5.39984 18.3334 9.99984C18.3334 14.5998 14.6001 18.3332 9.99175 18.3332C5.39175 18.3332 1.66675 14.5998 1.66675 9.99984ZM10.8334 6.6665C10.8334 6.20817 10.4584 5.83317 10.0001 5.83317C9.54175 5.83317 9.16675 6.20817 9.16675 6.6665V9.99984C9.16675 10.4582 9.54175 10.8332 10.0001 10.8332C10.4584 10.8332 10.8334 10.4582 10.8334 9.99984V6.6665ZM10.0001 16.6665C6.31675 16.6665 3.33341 13.6832 3.33341 9.99984C3.33341 6.3165 6.31675 3.33317 10.0001 3.33317C13.6834 3.33317 16.6667 6.3165 16.6667 9.99984C16.6667 13.6832 13.6834 16.6665 10.0001 16.6665ZM9.16675 12.4998V14.1665H10.8334V12.4998H9.16675Z" fill="#B3261E"/>
</svg>
