<svg width="24" height="24" viewBox="0 0 24 24" fill="none" xmlns="http://www.w3.org/2000/svg">
<path fill-rule="evenodd" clip-rule="evenodd" d="M18 8.5H17V6.5C17 3.74 14.76 1.5 12 1.5C9.24 1.5 7 3.74 7 6.5V8.5H6C4.9 8.5 4 9.4 4 10.5V20.5C4 21.6 4.9 22.5 6 22.5H18C19.1 22.5 20 21.6 20 20.5V10.5C20 9.4 19.1 8.5 18 8.5ZM12 18C10.35 18 9 16.65 9 15C9 13.35 10.35 12 12 12C13.65 12 15 13.35 15 15C15 16.65 13.65 18 12 18ZM9 6.5V8.5H15V6.5C15 4.84 13.66 3.5 12 3.5C10.34 3.5 9 4.84 9 6.5Z" fill="white"/>
</svg>
