<svg width="24" height="24" viewBox="0 0 24 24" fill="none" xmlns="http://www.w3.org/2000/svg">
<path d="M7.89501 7.04566L14.5396 5.23196L14.1877 4.52071C13.9575 4.05839 13.396 3.86747 12.9337 4.0977L6.98535 7.04566H7.89501Z" fill="white"/>
<path d="M16.6022 5.28467C16.5199 5.28467 16.4375 5.2959 16.3552 5.31836L14.7942 5.74511L10.0269 7.04596H15.438H17.7964L17.5044 5.97533C17.3921 5.55794 17.014 5.28467 16.6022 5.28467Z" fill="white"/>
<path d="M18.7716 7.70068H18.5583H18.2682H17.978H15.7638H7.6274H6.56052H5.66209H5.49551H4.93773C4.642 7.70068 4.37809 7.83732 4.20589 8.05257C4.12728 8.15177 4.06738 8.26594 4.03369 8.39135C4.0131 8.46996 4 8.55232 4 8.63655V8.74885V9.81573V19.0639C4 19.5805 4.41927 19.9998 4.93586 19.9998H18.7698C19.2864 19.9998 19.7056 19.5805 19.7056 19.0639V16.4529H14.1522C13.2744 16.4529 12.5613 15.7397 12.5613 14.8619V14.0047V13.7145V13.4244V12.7805C12.5613 12.35 12.7334 11.9589 13.0124 11.6725C13.2594 11.4179 13.5907 11.2457 13.9613 11.2027C14.0231 11.1952 14.0867 11.1914 14.1504 11.1914H18.927H19.2171H19.5072H19.7056V8.63655C19.7075 8.11995 19.2882 7.70068 18.7716 7.70068Z" fill="white"/>
<path d="M20.3626 12.0865C20.269 12.0004 20.1586 11.9349 20.035 11.8918C19.9395 11.86 19.8385 11.8413 19.7318 11.8413H19.7075H19.6888H19.3986H18.3523H14.1522C13.6356 11.8413 13.2163 12.2606 13.2163 12.7772V13.2432V13.5333V13.8234V14.8604C13.2163 15.377 13.6356 15.7962 14.1522 15.7962H19.7075H19.7318C19.8385 15.7962 19.9396 15.7775 20.035 15.7457C20.1586 15.7045 20.269 15.6371 20.3626 15.551C20.5497 15.3807 20.6677 15.1337 20.6677 14.8604V12.7772C20.6677 12.5039 20.5497 12.2568 20.3626 12.0865ZM16.1063 14.005C16.1063 14.2633 15.8966 14.4729 15.6383 14.4729H15.3276C15.0693 14.4729 14.8597 14.2633 14.8597 14.005V13.6943C14.8597 13.5446 14.9289 13.4116 15.0394 13.3274C15.1199 13.2657 15.2191 13.2264 15.3276 13.2264H15.4062H15.6383C15.8966 13.2264 16.1063 13.436 16.1063 13.6943V14.005Z" fill="white"/>
</svg>
