<svg width="44" height="44" viewBox="0 0 44 44" fill="none" xmlns="http://www.w3.org/2000/svg">
<path d="M25.752 13C26.0475 13 26.3401 13.0582 26.613 13.1713C26.886 13.2843 27.1341 13.4501 27.343 13.659C27.5519 13.8679 27.7177 14.116 27.8307 14.389C27.9438 14.6619 28.002 14.9545 28.002 15.25V16.003H28.752C29.614 16.0035 30.4405 16.346 31.0502 16.9554C31.6599 17.5647 32.0029 18.391 32.004 19.253L32.007 25.25C32.0071 25.5453 31.9491 25.8378 31.8362 26.1107C31.7233 26.3836 31.5577 26.6316 31.349 26.8406C31.1402 27.0495 30.8924 27.2153 30.6196 27.3284C30.3468 27.4416 30.0543 27.4999 29.759 27.5H28V28.75C28 29.3467 27.7629 29.919 27.341 30.341C26.919 30.7629 26.3467 31 25.75 31H18.25C17.6533 31 17.081 30.7629 16.659 30.341C16.2371 29.919 16 29.3467 16 28.75V27.5H14.25C13.6533 27.5 13.081 27.2629 12.659 26.841C12.2371 26.419 12 25.8467 12 25.25V19.254C12 18.392 12.3424 17.5654 12.9519 16.9559C13.5614 16.3464 14.388 16.004 15.25 16.004L15.999 16.003L16 15.25C16 14.6533 16.2371 14.081 16.659 13.659C17.081 13.2371 17.6533 13 18.25 13H25.752ZM25.75 23.5H18.25C18.0511 23.5 17.8603 23.579 17.7197 23.7197C17.579 23.8603 17.5 24.0511 17.5 24.25V28.75C17.5 29.164 17.836 29.5 18.25 29.5H25.75C25.9489 29.5 26.1397 29.421 26.2803 29.2803C26.421 29.1397 26.5 28.9489 26.5 28.75V24.25C26.5 24.0511 26.421 23.8603 26.2803 23.7197C26.1397 23.579 25.9489 23.5 25.75 23.5ZM28.752 17.504H15.25C14.7859 17.504 14.3408 17.6884 14.0126 18.0166C13.6844 18.3448 13.5 18.7899 13.5 19.254V25.25C13.5 25.664 13.836 26 14.25 26H16V24.25C16 23.6533 16.2371 23.081 16.659 22.659C17.081 22.2371 17.6533 22 18.25 22H25.75C26.3467 22 26.919 22.2371 27.341 22.659C27.7629 23.081 28 23.6533 28 24.25V26H29.783C29.9773 25.9935 30.1614 25.9117 30.2965 25.772C30.4316 25.6322 30.5071 25.4454 30.507 25.251L30.504 19.254C30.5029 18.7898 30.318 18.345 29.9896 18.017C29.6612 17.689 29.2162 17.5045 28.752 17.504ZM25.752 14.5H18.25C18.0511 14.5 17.8603 14.579 17.7197 14.7197C17.579 14.8603 17.5 15.0511 17.5 15.25L17.499 16.003H26.502V15.25C26.502 15.0511 26.423 14.8603 26.2823 14.7197C26.1417 14.579 25.9509 14.5 25.752 14.5Z" fill="#424242" stroke="#424242" stroke-width="0.5"/>
</svg>
