<svg width="110" height="110" viewBox="0 0 110 110" fill="none" xmlns="http://www.w3.org/2000/svg">
<rect width="110" height="110" fill="white"/>
<path d="M92.8123 57.6125V55V52.3531L99.4123 46.5781C100.629 45.5058 101.427 44.0379 101.666 42.4339C101.905 40.8298 101.57 39.193 100.719 37.8125L92.6061 24.0625C92.0033 23.0184 91.1365 22.1512 90.0927 21.5478C89.0489 20.9445 87.8648 20.6262 86.6592 20.625C85.9121 20.6193 85.169 20.7354 84.4592 20.9687L76.1061 23.7875C74.6639 22.8291 73.1595 21.9679 71.603 21.2094L69.8498 12.5469C69.5355 10.9643 68.6745 9.54263 67.4176 8.53085C66.1608 7.51906 64.5881 6.98158 62.9748 7.01249H46.8873C45.2741 6.98158 43.7014 7.51906 42.4445 8.53085C41.1876 9.54263 40.3267 10.9643 40.0123 12.5469L38.2592 21.2094C36.6915 21.9677 35.1757 22.8289 33.7217 23.7875L25.5405 20.8312C24.823 20.6443 24.0801 20.5747 23.3405 20.625C22.1348 20.6262 20.9507 20.9445 19.907 21.5478C18.8632 22.1512 17.9964 23.0184 17.3936 24.0625L9.28108 37.8125C8.47872 39.1909 8.18057 40.8054 8.43769 42.3794C8.6948 43.9535 9.49119 45.3892 10.6905 46.4406L17.1873 52.3875V57.6469L10.6905 63.4219C9.45732 64.4806 8.63915 65.942 8.38114 67.5467C8.12313 69.1514 8.44197 70.7956 9.28108 72.1875L17.3936 85.9375C17.9964 86.9816 18.8632 87.8488 19.907 88.4522C20.9507 89.0555 22.1348 89.3738 23.3405 89.375C24.0876 89.3807 24.8307 89.2646 25.5405 89.0312L33.8936 86.2125C35.3358 87.1709 36.8401 88.0321 38.3967 88.7906L40.1498 97.4531C40.4642 99.0357 41.3251 100.457 42.582 101.469C43.8389 102.481 45.4116 103.018 47.0248 102.988H63.2498C64.8631 103.018 66.4358 102.481 67.6926 101.469C68.9495 100.457 69.8105 99.0357 70.1248 97.4531L71.878 88.7906C73.4457 88.0323 74.9615 87.1711 76.4155 86.2125L84.7342 89.0312C85.444 89.2646 86.1871 89.3807 86.9342 89.375C88.1398 89.3738 89.3239 89.0555 90.3677 88.4522C91.4115 87.8488 92.2783 86.9816 92.8811 85.9375L100.719 72.1875C101.521 70.8091 101.819 69.1946 101.562 67.6206C101.305 66.0465 100.508 64.6108 99.3092 63.5594L92.8123 57.6125ZM86.6592 82.5L74.8686 78.5125C72.1085 80.8504 68.954 82.6779 65.553 83.9094L63.1123 96.25H46.8873L44.4467 84.0469C41.0725 82.7804 37.9351 80.9561 35.1655 78.65L23.3405 82.5L15.228 68.75L24.578 60.5C23.9424 56.9417 23.9424 53.2989 24.578 49.7406L15.228 41.25L23.3405 27.5L35.1311 31.4875C37.8912 29.1496 41.0457 27.3221 44.4467 26.0906L46.8873 13.75H63.1123L65.553 25.9531C68.9271 27.2196 72.0646 29.0439 74.8342 31.35L86.6592 27.5L94.7717 41.25L85.4217 49.5C86.0573 53.0583 86.0573 56.7011 85.4217 60.2594L94.7717 68.75L86.6592 82.5Z" fill="#424242"/>
<path d="M55 75.625C50.9208 75.625 46.9331 74.4154 43.5414 72.1491C40.1496 69.8828 37.5061 66.6616 35.945 62.8929C34.3839 59.1241 33.9755 54.9771 34.7713 50.9763C35.5671 46.9754 37.5315 43.3004 40.4159 40.4159C43.3004 37.5315 46.9754 35.5671 50.9763 34.7713C54.9771 33.9755 59.1241 34.3839 62.8929 35.945C66.6616 37.5061 69.8828 40.1496 72.1491 43.5414C74.4154 46.9331 75.625 50.9208 75.625 55C75.6526 57.7162 75.1379 60.4106 74.1112 62.9254C73.0845 65.4402 71.5663 67.7248 69.6455 69.6455C67.7248 71.5663 65.4402 73.0845 62.9254 74.1112C60.4106 75.1379 57.7162 75.6526 55 75.625ZM55 41.25C53.1828 41.2077 51.3758 41.5344 49.6884 42.2104C48.0011 42.8864 46.4684 43.8977 45.183 45.183C43.8977 46.4684 42.8864 48.0011 42.2104 49.6884C41.5344 51.3758 41.2077 53.1828 41.25 55C41.2077 56.8173 41.5344 58.6242 42.2104 60.3116C42.8864 61.9989 43.8977 63.5316 45.183 64.817C46.4684 66.1023 48.0011 67.1136 49.6884 67.7896C51.3758 68.4656 53.1828 68.7923 55 68.75C56.8173 68.7923 58.6242 68.4656 60.3116 67.7896C61.9989 67.1136 63.5316 66.1023 64.817 64.817C66.1023 63.5316 67.1136 61.9989 67.7896 60.3116C68.4656 58.6242 68.7923 56.8173 68.75 55C68.7923 53.1828 68.4656 51.3758 67.7896 49.6884C67.1136 48.0011 66.1023 46.4684 64.817 45.183C63.5316 43.8977 61.9989 42.8864 60.3116 42.2104C58.6242 41.5344 56.8173 41.2077 55 41.25Z" fill="#424242"/>
</svg>
